<svg width="48" height="48" viewBox="0 0 48 48" fill="none" xmlns="http://www.w3.org/2000/svg">
<path d="M16.3638 42.2031H32.3638" stroke="#828282" stroke-width="2" stroke-linecap="round"/>
<path d="M24.4771 4V8.29545" stroke="#828282" stroke-width="2" stroke-linecap="round"/>
<path d="M24.4771 36V42" stroke="#828282" stroke-width="2" stroke-linecap="round"/>
<g filter="url(#filter0_i_6975_15944)">
<path d="M6.81836 15.5469C6.81836 14.4423 7.71379 13.5469 8.81836 13.5469H27.3411H33.5456H39.182C40.2866 13.5469 41.182 14.4423 41.182 15.5469V33.5469C41.182 34.6514 40.2866 35.5469 39.182 35.5469H8.81836C7.71379 35.5469 6.81836 34.6514 6.81836 33.5469V15.5469Z" fill="url(#paint0_linear_6975_15944)"/>
</g>
<path d="M44 7.82031H4C3.44772 7.82031 3 8.26803 3 8.82031V12.8203C3 13.3726 3.44771 13.8203 4 13.8203H35.2326H44C44.5523 13.8203 45 13.3726 45 12.8203V8.82031C45 8.26803 44.5523 7.82031 44 7.82031Z" fill="url(#paint1_linear_6975_15944)"/>
<path d="M17.3179 27.3906V31.2088" stroke="#FE2E36" stroke-width="2" stroke-linecap="round"/>
<path d="M22.0908 23.5703V31.2067" stroke="#FE2E36" stroke-width="2" stroke-linecap="round"/>
<path d="M26.8633 25.4766V31.2038" stroke="#FE2E36" stroke-width="2" stroke-linecap="round"/>
<path d="M31.6362 18.7969V31.206" stroke="#FE2E36" stroke-width="2" stroke-linecap="round"/>
<defs>
<filter id="filter0_i_6975_15944" x="6.81836" y="13.5469" width="34.3638" height="26" filterUnits="userSpaceOnUse" color-interpolation-filters="sRGB">
<feFlood flood-opacity="0" result="BackgroundImageFix"/>
<feBlend mode="normal" in="SourceGraphic" in2="BackgroundImageFix" result="shape"/>
<feColorMatrix in="SourceAlpha" type="matrix" values="0 0 0 0 0 0 0 0 0 0 0 0 0 0 0 0 0 0 127 0" result="hardAlpha"/>
<feOffset dy="4"/>
<feGaussianBlur stdDeviation="2"/>
<feComposite in2="hardAlpha" operator="arithmetic" k2="-1" k3="1"/>
<feColorMatrix type="matrix" values="0 0 0 0 0.945098 0 0 0 0 0.945098 0 0 0 0 0.94902 0 0 0 0.25 0"/>
<feBlend mode="normal" in2="shape" result="effect1_innerShadow_6975_15944"/>
</filter>
<linearGradient id="paint0_linear_6975_15944" x1="24.0002" y1="13.5469" x2="24.0002" y2="35.5469" gradientUnits="userSpaceOnUse">
<stop stop-color="#E6E7E8"/>
<stop offset="1" stop-color="#B7B7B7"/>
</linearGradient>
<linearGradient id="paint1_linear_6975_15944" x1="24" y1="7.82031" x2="24" y2="13.8203" gradientUnits="userSpaceOnUse">
<stop stop-color="#E6E7E8"/>
<stop offset="1" stop-color="#B7B7B7"/>
</linearGradient>
</defs>
</svg>
