<svg width="48" height="48" viewBox="0 0 48 48" fill="none" xmlns="http://www.w3.org/2000/svg">
<g filter="url(#filter0_i_6975_15919)">
<path d="M24 19C28.1421 19 31.5 15.6421 31.5 11.5C31.5 7.35786 28.1421 4 24 4C19.8579 4 16.5 7.35786 16.5 11.5C16.5 15.6421 19.8579 19 24 19Z" fill="url(#paint0_linear_6975_15919)"/>
</g>
<g filter="url(#filter1_i_6975_15919)">
<path d="M9 34.1111C9 25.7622 15.7125 19 24 19C32.2875 19 39 25.7622 39 34.1111C39 35.1543 38.1543 36 37.1111 36H35H13H10.8889C9.84568 36 9 35.1543 9 34.1111Z" fill="url(#paint1_linear_6975_15919)"/>
</g>
<path d="M23.8272 27.2967C23.9043 27.1643 24.0957 27.1643 24.1728 27.2967L26.8652 31.9192C26.8934 31.9677 26.9408 32.0021 26.9957 32.014L32.2239 33.1462C32.3737 33.1786 32.4328 33.3606 32.3307 33.4749L28.7665 37.4639C28.729 37.5058 28.711 37.5615 28.7166 37.6173L29.2555 42.9395C29.2709 43.092 29.1161 43.2045 28.9758 43.1427L24.0807 40.9855C24.0293 40.9629 23.9707 40.9629 23.9194 40.9855L19.0242 43.1427C18.8839 43.2045 18.7291 43.092 18.7445 42.9395L19.2834 37.6173C19.289 37.5615 19.271 37.5058 19.2335 37.4639L15.6693 33.4749C15.5672 33.3606 15.6263 33.1786 15.7761 33.1462L21.0043 32.014C21.0592 32.0021 21.1066 31.9677 21.1348 31.9192L23.8272 27.2967Z" fill="white" stroke="#FE2E36" stroke-width="2"/>
<defs>
<filter id="filter0_i_6975_15919" x="16.5" y="4" width="15" height="19" filterUnits="userSpaceOnUse" color-interpolation-filters="sRGB">
<feFlood flood-opacity="0" result="BackgroundImageFix"/>
<feBlend mode="normal" in="SourceGraphic" in2="BackgroundImageFix" result="shape"/>
<feColorMatrix in="SourceAlpha" type="matrix" values="0 0 0 0 0 0 0 0 0 0 0 0 0 0 0 0 0 0 127 0" result="hardAlpha"/>
<feOffset dy="4"/>
<feGaussianBlur stdDeviation="2"/>
<feComposite in2="hardAlpha" operator="arithmetic" k2="-1" k3="1"/>
<feColorMatrix type="matrix" values="0 0 0 0 0.4625 0 0 0 0 0.4625 0 0 0 0 0.4625 0 0 0 0.25 0"/>
<feBlend mode="normal" in2="shape" result="effect1_innerShadow_6975_15919"/>
</filter>
<filter id="filter1_i_6975_15919" x="9" y="19" width="30" height="21" filterUnits="userSpaceOnUse" color-interpolation-filters="sRGB">
<feFlood flood-opacity="0" result="BackgroundImageFix"/>
<feBlend mode="normal" in="SourceGraphic" in2="BackgroundImageFix" result="shape"/>
<feColorMatrix in="SourceAlpha" type="matrix" values="0 0 0 0 0 0 0 0 0 0 0 0 0 0 0 0 0 0 127 0" result="hardAlpha"/>
<feOffset dy="4"/>
<feGaussianBlur stdDeviation="2"/>
<feComposite in2="hardAlpha" operator="arithmetic" k2="-1" k3="1"/>
<feColorMatrix type="matrix" values="0 0 0 0 0.4625 0 0 0 0 0.4625 0 0 0 0 0.4625 0 0 0 0.25 0"/>
<feBlend mode="normal" in2="shape" result="effect1_innerShadow_6975_15919"/>
</filter>
<linearGradient id="paint0_linear_6975_15919" x1="24" y1="4" x2="24" y2="19" gradientUnits="userSpaceOnUse">
<stop stop-color="#F1F1F2"/>
<stop offset="1" stop-color="#B7B7B7"/>
</linearGradient>
<linearGradient id="paint1_linear_6975_15919" x1="24" y1="19" x2="24" y2="36" gradientUnits="userSpaceOnUse">
<stop stop-color="#F1F1F2"/>
<stop offset="1" stop-color="#B7B7B7"/>
</linearGradient>
</defs>
</svg>
