<svg width="48" height="48" viewBox="0 0 48 48" fill="none" xmlns="http://www.w3.org/2000/svg">
<g filter="url(#filter0_i_6975_15929)">
<circle cx="24" cy="24" r="20" fill="url(#paint0_linear_6975_15929)"/>
</g>
<path d="M12.8662 13.0761C12.7693 12.9005 12.9624 12.7074 13.138 12.8044L23.5312 18.5412C23.6477 18.6055 23.67 18.7636 23.5759 18.8577L18.9196 23.5141C18.8255 23.6082 18.6674 23.5858 18.6031 23.4693L12.8662 13.0761Z" fill="#FE2E36"/>
<path d="M35.1651 35.3769C35.3407 35.4739 35.5338 35.2808 35.4369 35.1052L29.7 24.712C29.6357 24.5955 29.4776 24.5731 29.3835 24.6672L24.7272 29.3236C24.633 29.4177 24.6554 29.5758 24.7719 29.6401L35.1651 35.3769Z" fill="#FE2E36"/>
<circle cx="24.1506" cy="24.0938" r="2.05446" transform="rotate(-45 24.1506 24.0938)" fill="#FE2E36"/>
<defs>
<filter id="filter0_i_6975_15929" x="4" y="4" width="40" height="44" filterUnits="userSpaceOnUse" color-interpolation-filters="sRGB">
<feFlood flood-opacity="0" result="BackgroundImageFix"/>
<feBlend mode="normal" in="SourceGraphic" in2="BackgroundImageFix" result="shape"/>
<feColorMatrix in="SourceAlpha" type="matrix" values="0 0 0 0 0 0 0 0 0 0 0 0 0 0 0 0 0 0 127 0" result="hardAlpha"/>
<feOffset dy="4"/>
<feGaussianBlur stdDeviation="2"/>
<feComposite in2="hardAlpha" operator="arithmetic" k2="-1" k3="1"/>
<feColorMatrix type="matrix" values="0 0 0 0 0.4625 0 0 0 0 0.4625 0 0 0 0 0.4625 0 0 0 0.25 0"/>
<feBlend mode="normal" in2="shape" result="effect1_innerShadow_6975_15929"/>
</filter>
<linearGradient id="paint0_linear_6975_15929" x1="11.556" y1="5.84722" x2="39.0375" y2="52.5139" gradientUnits="userSpaceOnUse">
<stop stop-color="#F1F1F2"/>
<stop offset="1" stop-color="#B7B7B7"/>
</linearGradient>
</defs>
</svg>
